<svg width="1011" height="327" viewBox="0 0 1011 327" fill="none" xmlns="http://www.w3.org/2000/svg">
<g clip-path="url(#clip0_1247_3827)">
<path d="M14.9976 282.959C14.9976 266.409 27.6376 254.319 44.6776 254.319C53.3176 254.319 60.8376 257.319 65.9576 263.039L60.7576 268.039C58.7533 265.875 56.311 264.164 53.5934 263.019C50.8759 261.875 47.9455 261.322 44.9976 261.399C32.3576 261.399 22.9976 270.519 22.9976 282.919C22.9976 295.319 32.3576 304.449 44.9976 304.449C47.9509 304.511 50.8836 303.943 53.6008 302.785C56.3181 301.626 58.7577 299.903 60.7576 297.729L65.9576 302.729C60.8376 308.609 53.3176 311.609 44.5976 311.609C27.6376 311.609 14.9976 299.529 14.9976 282.959Z" fill="#1D1D1B"/>
<path d="M109.317 285.369V310.969H102.037V305.369C99.4775 309.209 94.7575 311.449 88.1175 311.449C78.5175 311.449 72.4375 306.329 72.4375 298.969C72.4375 292.169 76.8375 286.569 89.4375 286.569H101.597V285.039C101.597 278.569 97.8375 274.799 90.2375 274.799C85.3687 274.752 80.629 276.364 76.7975 279.369L73.6375 273.609C78.0375 270.089 84.3575 268.179 91.1575 268.179C102.758 268.169 109.317 273.759 109.317 285.369ZM101.637 298.009V292.079H89.7975C82.1975 292.079 80.0375 295.079 80.0375 298.649C80.0375 302.889 83.5575 305.529 89.3975 305.529C95.2375 305.529 99.7175 302.889 101.637 298.009Z" fill="#1D1D1B"/>
<path d="M167.477 289.769C167.477 302.769 158.477 311.449 146.037 311.449C143.209 311.543 140.398 310.974 137.83 309.786C135.261 308.598 133.007 306.825 131.247 304.609V326.529H123.567V268.609H130.927V275.339C134.367 270.609 139.807 268.219 146.047 268.219C158.437 268.169 167.477 276.799 167.477 289.769ZM159.717 289.769C159.717 280.769 153.557 274.879 145.397 274.879C137.237 274.879 131.157 280.799 131.157 289.769C131.157 298.739 137.317 304.769 145.397 304.769C153.477 304.769 159.717 298.809 159.717 289.769Z" fill="#1D1D1B"/>
<path d="M201.958 308.489C199.638 310.489 196.118 311.489 192.678 311.489C184.118 311.489 179.238 306.769 179.238 298.209V274.879H172.038V268.609H179.248V259.329H186.928V268.609H199.088V274.929H186.918V297.929C186.918 302.489 189.318 305.049 193.558 305.049C195.725 305.073 197.838 304.369 199.558 303.049L201.958 308.489Z" fill="#1D1D1B"/>
<path d="M209.877 255.439C209.885 254.767 210.026 254.104 210.293 253.488C210.559 252.872 210.946 252.315 211.43 251.849C211.914 251.384 212.486 251.019 213.112 250.777C213.738 250.535 214.406 250.42 215.077 250.439C216.057 250.478 217.003 250.804 217.799 251.377C218.594 251.949 219.204 252.743 219.552 253.66C219.9 254.576 219.971 255.575 219.756 256.531C219.541 257.487 219.05 258.359 218.343 259.039C217.636 259.718 216.746 260.175 215.782 260.352C214.818 260.529 213.823 260.419 212.921 260.036C212.019 259.652 211.249 259.012 210.708 258.195C210.167 257.377 209.878 256.419 209.877 255.439ZM211.247 268.609H218.927V311.019H211.247V268.609Z" fill="#1D1D1B"/>
<path d="M271.078 268.609L252.518 311.019H244.678L226.118 268.609H234.118L248.678 302.609L263.558 268.609H271.078Z" fill="#1D1D1B"/>
<path d="M310.517 285.369V310.969H303.247V305.369C300.697 309.209 295.967 311.449 289.327 311.449C279.727 311.449 273.647 306.329 273.647 298.969C273.647 292.169 278.047 286.569 290.647 286.569H302.817V285.039C302.817 278.569 299.047 274.799 291.457 274.799C286.586 274.753 281.843 276.364 278.007 279.369L274.807 273.599C279.207 270.079 285.527 268.169 292.337 268.169C303.947 268.169 310.517 273.759 310.517 285.369ZM302.837 298.009V292.079H290.987C283.397 292.079 281.227 295.079 281.227 298.649C281.227 302.889 284.747 305.529 290.597 305.529C296.447 305.529 300.907 302.889 302.837 298.009Z" fill="#1D1D1B"/>
<path d="M348.597 308.489C345.939 310.53 342.657 311.59 339.307 311.489C330.747 311.489 325.867 306.769 325.867 298.209V274.879H318.667V268.609H325.867V259.329H333.547V268.609H345.707V274.929H333.547V297.929C333.547 302.489 335.947 305.049 340.187 305.049C342.356 305.076 344.47 304.372 346.187 303.049L348.597 308.489Z" fill="#1D1D1B"/>
<path d="M394.598 292.329H360.188C361.188 299.769 367.188 304.729 375.548 304.729C377.837 304.812 380.117 304.397 382.23 303.513C384.343 302.629 386.24 301.297 387.788 299.609L392.028 304.609C388.188 309.089 382.358 311.489 375.308 311.489C361.628 311.489 352.508 302.489 352.508 289.809C352.508 277.129 361.508 268.209 373.788 268.209C386.068 268.209 394.788 276.999 394.788 290.039C394.748 290.609 394.678 291.609 394.598 292.329ZM360.188 286.809H387.398C387.023 283.462 385.429 280.372 382.919 278.127C380.409 275.883 377.16 274.642 373.793 274.642C370.426 274.642 367.177 275.883 364.667 278.127C362.157 280.372 360.562 283.462 360.188 286.809Z" fill="#1D1D1B"/>
<path d="M464.428 268.609L443.868 315.209C440.108 324.209 435.228 326.969 428.748 326.969C424.668 326.969 420.508 325.609 417.868 323.049L421.148 317.289C423.174 319.285 425.903 320.405 428.748 320.409C432.428 320.409 434.748 318.729 436.828 313.849L438.188 310.849L419.468 268.609H427.468L442.248 302.489L456.908 268.609H464.428Z" fill="#1D1D1B"/>
<path d="M466.508 289.769C466.508 277.129 475.868 268.169 488.588 268.169C501.308 268.169 510.588 277.169 510.588 289.769C510.588 302.369 501.308 311.449 488.588 311.449C475.868 311.449 466.508 302.409 466.508 289.769ZM502.828 289.769C502.828 280.769 496.748 274.879 488.588 274.879C480.428 274.879 474.248 280.729 474.248 289.769C474.248 298.809 480.408 304.769 488.568 304.769C496.728 304.769 502.828 298.809 502.828 289.769Z" fill="#1D1D1B"/>
<path d="M560.748 268.609V311.019H553.468V304.609C550.348 309.009 545.068 311.489 539.068 311.489C528.068 311.489 520.828 305.489 520.828 293.009V268.609H528.508V292.129C528.508 300.459 532.668 304.619 539.948 304.619C547.948 304.619 553.068 299.619 553.068 290.539V268.609H560.748Z" fill="#1D1D1B"/>
<path d="M598.188 268.169V275.609C597.603 275.544 597.015 275.517 596.428 275.529C588.188 275.529 583.068 280.529 583.068 289.849V310.969H575.388V268.609H582.748V275.729C585.468 270.719 590.748 268.169 598.188 268.169Z" fill="#1D1D1B"/>
<path d="M663.307 285.369V310.969H656.028V305.369C653.468 309.209 648.747 311.449 642.107 311.449C632.507 311.449 626.427 306.329 626.427 298.969C626.427 292.169 630.827 286.569 643.427 286.569H655.588V285.039C655.588 278.569 651.827 274.799 644.227 274.799C639.359 274.752 634.619 276.364 630.787 279.369L627.588 273.599C631.988 270.079 638.307 268.169 645.107 268.169C656.747 268.169 663.307 273.759 663.307 285.369ZM655.628 298.009V292.079H643.787C636.187 292.079 634.028 295.079 634.028 298.649C634.028 302.889 637.548 305.529 643.388 305.529C649.228 305.529 653.708 302.889 655.628 298.009Z" fill="#1D1D1B"/>
<path d="M717.067 268.609V311.019H709.787V304.609C706.667 309.009 701.387 311.489 695.387 311.489C684.387 311.489 677.147 305.489 677.147 293.009V268.609H684.827V292.129C684.827 300.459 688.987 304.619 696.267 304.619C704.267 304.619 709.387 299.619 709.387 290.539V268.609H717.067Z" fill="#1D1D1B"/>
<path d="M771.708 251.609V310.979H764.348V304.259C760.908 309.059 755.468 311.459 749.228 311.459C736.828 311.459 727.788 302.739 727.788 289.779C727.788 276.819 736.788 268.179 749.228 268.179C755.228 268.179 760.508 270.419 764.028 274.969V251.609H771.708ZM764.108 289.779C764.108 280.779 757.948 274.889 749.868 274.889C741.788 274.889 735.548 280.739 735.548 289.779C735.548 298.819 741.708 304.779 749.868 304.779C758.028 304.779 764.108 298.809 764.108 289.769V289.779Z" fill="#1D1D1B"/>
<path d="M784.907 255.439C784.915 254.767 785.056 254.104 785.323 253.488C785.59 252.872 785.976 252.315 786.46 251.849C786.944 251.384 787.516 251.019 788.142 250.777C788.768 250.535 789.436 250.42 790.107 250.439C791.087 250.478 792.033 250.804 792.829 251.377C793.624 251.949 794.234 252.743 794.582 253.66C794.93 254.576 795.001 255.575 794.786 256.531C794.571 257.487 794.08 258.359 793.373 259.039C792.666 259.718 791.776 260.175 790.812 260.352C789.848 260.529 788.853 260.419 787.951 260.036C787.049 259.652 786.279 259.012 785.738 258.195C785.197 257.377 784.908 256.419 784.907 255.439ZM786.247 268.609H793.927V311.019H786.247V268.609Z" fill="#1D1D1B"/>
<path d="M846.747 292.329H812.347C813.347 299.769 819.348 304.729 827.708 304.729C829.997 304.812 832.277 304.397 834.39 303.513C836.503 302.629 838.399 301.297 839.948 299.609L844.188 304.609C840.347 309.089 834.507 311.489 827.467 311.489C813.787 311.489 804.667 302.489 804.667 289.809C804.667 277.129 813.668 268.209 825.948 268.209C838.228 268.209 846.948 276.999 846.948 290.039C846.908 290.609 846.827 291.609 846.747 292.329ZM812.347 286.809H839.547C839.183 283.456 837.594 280.356 835.083 278.104C832.573 275.852 829.32 274.606 825.948 274.606C822.575 274.606 819.322 275.852 816.812 278.104C814.301 280.356 812.712 283.456 812.347 286.809Z" fill="#1D1D1B"/>
<path d="M897.788 286.609V311.009H890.108V287.449C890.108 279.129 885.948 275.039 878.668 275.039C870.508 275.039 865.228 279.919 865.228 289.129V310.969H857.548V268.609H864.908V275.009C868.028 270.689 873.468 268.219 880.188 268.219C890.508 268.169 897.788 274.079 897.788 286.609Z" fill="#1D1D1B"/>
<path d="M908.348 289.769C908.348 277.129 917.708 268.169 930.748 268.169C938.348 268.169 944.668 271.289 948.028 277.169L942.188 280.919C940.956 278.997 939.247 277.427 937.229 276.361C935.21 275.296 932.949 274.771 930.668 274.839C922.348 274.839 916.108 280.689 916.108 289.729C916.108 298.929 922.348 304.729 930.668 304.729C932.953 304.792 935.216 304.261 937.235 303.189C939.254 302.116 940.961 300.538 942.188 298.609L948.028 302.289C944.668 308.209 938.348 311.409 930.748 311.409C917.708 311.449 908.348 302.409 908.348 289.769Z" fill="#1D1D1B"/>
<path d="M995.468 292.329H961.068C962.068 299.769 968.068 304.729 976.428 304.729C978.717 304.812 980.997 304.397 983.11 303.513C985.223 302.629 987.119 301.297 988.668 299.609L992.908 304.609C989.068 309.089 983.228 311.489 976.188 311.489C962.508 311.489 953.388 302.489 953.388 289.809C953.388 277.129 962.388 268.209 974.668 268.209C986.948 268.209 995.668 276.999 995.668 290.039C995.628 290.609 995.548 291.609 995.468 292.329ZM961.068 286.809H988.248C987.883 283.456 986.294 280.356 983.784 278.104C981.274 275.852 978.02 274.606 974.648 274.606C971.275 274.606 968.022 275.852 965.512 278.104C963.002 280.356 961.412 283.456 961.048 286.809H961.068Z" fill="#1D1D1B"/>
<path d="M826.808 25.5486V187.079C826.808 193.417 824.29 199.496 819.807 203.978C815.325 208.461 809.246 210.979 802.908 210.979C796.569 210.979 790.49 208.461 786.008 203.978C781.526 199.496 779.008 193.417 779.008 187.079V94.8386L743.008 140.719C740.628 143.561 737.654 145.848 734.296 147.417C730.937 148.986 727.275 149.799 723.568 149.799C719.86 149.799 716.198 148.986 712.84 147.417C709.481 145.848 706.507 143.561 704.128 140.719L668.128 94.8386V187.079C668.128 193.417 665.61 199.496 661.127 203.978C656.645 208.461 650.566 210.979 644.228 210.979C637.889 210.979 631.81 208.461 627.328 203.978C622.846 199.496 620.328 193.417 620.328 187.079V25.5486C620.332 24.2484 620.443 22.9508 620.658 21.6686C620.728 21.2386 620.808 20.7986 620.908 20.3686C621.008 19.9386 621.118 19.5086 621.238 19.0786C621.358 18.6486 621.468 18.2786 621.608 17.8786L621.658 17.7386C621.768 17.4086 621.888 17.0886 622.018 16.7386L622.148 16.4386C622.278 16.0986 622.428 15.7586 622.588 15.4386L622.878 14.8586C623.128 14.3386 623.408 13.8586 623.698 13.3386L623.828 13.1286C624.008 12.8386 624.188 12.5486 624.378 12.2686L624.448 12.1686C624.608 11.9286 624.768 11.6986 624.938 11.4686L625.178 11.1486C625.608 10.5786 626.068 10.0186 626.558 9.48858L628.248 7.84858L628.758 7.40858L629.458 6.82858L629.618 6.70858C629.838 6.53858 630.058 6.36858 630.288 6.20858C630.518 6.04858 630.848 5.80858 631.128 5.61858C636.135 2.35855 642.179 1.08381 648.077 2.04365C653.975 3.00349 659.302 6.12888 663.018 10.8086L663.658 11.6286L723.588 88.0486L783.518 11.6086L784.158 10.7886C787.875 6.11047 793.203 2.98704 799.1 2.02906C804.998 1.07108 811.041 2.34745 816.048 5.60858C816.328 5.79858 816.608 5.98858 816.888 6.19858C817.168 6.40858 817.338 6.52858 817.558 6.69858L817.718 6.81858L818.418 7.39858L818.928 7.83858L820.578 9.48858C821.068 10.0186 821.528 10.5786 821.958 11.1486L822.198 11.4686C822.368 11.6986 822.528 11.9286 822.688 12.1686L822.758 12.2686C822.948 12.5486 823.128 12.8386 823.308 13.1286L823.438 13.3386C823.728 13.8286 824.008 14.3386 824.258 14.8586L824.548 15.4386C824.708 15.7686 824.858 16.1086 824.988 16.4386L825.118 16.7386C825.248 17.0686 825.368 17.3886 825.478 17.7386V17.8786C825.618 18.2786 825.738 18.6786 825.848 19.0786C825.958 19.4786 826.078 19.9386 826.178 20.3686C826.278 20.7986 826.358 21.2386 826.428 21.6686C826.659 22.9495 826.786 24.2471 826.808 25.5486Z" fill="black"/>
<path d="M552.498 1.60864H459.848C446.648 1.60864 435.948 12.309 435.948 25.5086C435.948 38.7082 446.648 49.4086 459.848 49.4086H552.498C565.697 49.4086 576.398 38.7082 576.398 25.5086C576.398 12.309 565.697 1.60864 552.498 1.60864Z" fill="#2CA95B"/>
<path d="M552.498 162.729H459.848C446.648 162.729 435.948 173.429 435.948 186.629C435.948 199.828 446.648 210.529 459.848 210.529H552.498C565.697 210.529 576.398 199.828 576.398 186.629C576.398 173.429 565.697 162.729 552.498 162.729Z" fill="#2CA95B"/>
<path d="M504.568 82.1687H459.848C446.648 82.1687 435.948 92.8691 435.948 106.069C435.948 119.268 446.648 129.969 459.848 129.969H504.568C517.767 129.969 528.468 119.268 528.468 106.069C528.468 92.8691 517.767 82.1687 504.568 82.1687Z" fill="#2CA95B"/>
<path d="M986.477 1.75867H893.828C880.628 1.75867 869.927 12.4591 869.927 25.6587C869.927 38.8583 880.628 49.5587 893.828 49.5587H986.477C999.677 49.5587 1010.38 38.8583 1010.38 25.6587C1010.38 12.4591 999.677 1.75867 986.477 1.75867Z" fill="#00A3E0"/>
<path d="M986.477 162.879H893.828C880.628 162.879 869.927 173.579 869.927 186.779C869.927 199.978 880.628 210.679 893.828 210.679H986.477C999.677 210.679 1010.38 199.978 1010.38 186.779C1010.38 173.579 999.677 162.879 986.477 162.879Z" fill="#00A3E0"/>
<path d="M938.547 82.3186H893.828C880.628 82.3186 869.927 93.019 869.927 106.219C869.927 119.418 880.628 130.119 893.828 130.119H938.547C951.747 130.119 962.448 119.418 962.448 106.219C962.448 93.019 951.747 82.3186 938.547 82.3186Z" fill="#00A3E0"/>
<path d="M213.338 186.449C213.358 191.923 211.531 197.243 208.152 201.55C204.772 205.856 200.038 208.895 194.716 210.176C189.394 211.457 183.795 210.904 178.826 208.607C173.858 206.31 169.81 202.403 167.338 197.519L106.788 78.0486L46.2477 197.519C43.7758 202.403 39.7278 206.31 34.7591 208.607C29.7904 210.904 24.1918 211.457 18.8697 210.176C13.5476 208.895 8.81355 205.856 5.43393 201.55C2.05432 197.243 0.226976 191.923 0.247734 186.449C0.247834 182.657 1.14204 178.919 2.85773 175.539L84.5177 14.4186C86.6048 10.3329 89.801 6.91809 93.7399 4.56571C97.6788 2.21333 102.201 1.01863 106.788 1.1186C111.375 1.01745 115.897 2.21165 119.836 4.56416C123.776 6.91667 126.972 10.3321 129.058 14.4186L210.718 175.539C212.436 178.919 213.334 182.657 213.338 186.449Z" fill="black"/>
<path d="M399.458 24.5086C399.431 30.8392 396.905 36.903 392.429 41.3794C387.952 45.8558 381.888 48.3823 375.558 48.4086H335.898V186.079C335.898 192.417 333.38 198.496 328.898 202.979C324.415 207.461 318.336 209.979 311.998 209.979C305.659 209.979 299.58 207.461 295.098 202.979C290.616 198.496 288.098 192.417 288.098 186.079V48.4086H247.098C240.759 48.4086 234.68 45.8906 230.198 41.4085C225.716 36.9264 223.198 30.8473 223.198 24.5086C223.198 18.17 225.716 12.0909 230.198 7.60879C234.68 3.12667 240.759 0.608643 247.098 0.608643L375.558 0.608643C381.888 0.634965 387.952 3.16145 392.429 7.63787C396.905 12.1143 399.431 18.1781 399.458 24.5086Z" fill="black"/>
</g>
<defs>
<clipPath id="clip0_1247_3827">
<rect width="1010.12" height="326.36" fill="white" transform="translate(0.247559 0.608643)"/>
</clipPath>
</defs>
</svg>

