<?xml version="1.0" encoding="utf-8"?>
<!-- Generator: Adobe Illustrator 16.0.0, SVG Export Plug-In . SVG Version: 6.00 Build 0)  -->
<!DOCTYPE svg PUBLIC "-//W3C//DTD SVG 1.1//EN" "http://www.w3.org/Graphics/SVG/1.1/DTD/svg11.dtd">
<svg version="1.1" id="Calque_1" xmlns="http://www.w3.org/2000/svg" xmlns:xlink="http://www.w3.org/1999/xlink" x="0px" y="0px"
	 width="182px" height="182.334px" viewBox="0 0 182 182.334" enable-background="new 0 0 182 182.334" xml:space="preserve">

<linearGradient id="SVGID_1_" gradientUnits="userSpaceOnUse" x1="91.6626" y1="178.5205" x2="91.6626" y2="6.6455">
	<stop  offset="0" style="stop-color:#10A2DC"/>
	<stop  offset="1" style="stop-color:#43A757"/>
</linearGradient>

<path fill="url(#SVGID_1_)" d="M177.843,158.81c0,5.484-2.032,10.336-6.029,14.41l-0.376,0.342
	c-4.014,3.336-7.661,4.959-11.131,4.959h-5.051c-0.87,0-1.798-0.133-2.676-0.377l-0.201-0.059c-4.767-1.539-8.48-4.264-11.047-8.096
	l-0.31-0.525L91.998,72.479l-0.101-0.293c-0.066-0.184-0.134-0.359-0.201-0.512c-18.474,37.049-18.8,37.541-19.151,38.07
	c-0.059,0.09-0.126,0.182-0.192,0.268c-3.187,6.279-6.373,12.553-9.559,18.824c-6.381,12.545-12.753,25.09-19.151,37.633
	c-0.034,0.092-0.076,0.184-0.125,0.285l-0.05,0.092c-0.184,0.367-0.368,0.719-0.552,1.078l-0.552,1.162l-0.334,0.527
	c-0.661,1.037-1.43,2.057-2.283,3.02l-0.418,0.41c-4.14,3.688-7.912,5.477-11.533,5.477h-4.967c-1.765,0-3.814-0.578-6.431-1.814
	l-0.468-0.25c-8.639-5.262-10.445-12.395-10.445-17.453c0-3.111,0.895-6.365,2.676-9.668L43.76,77.673l0.025,0.023
	c6.122-12.301,16.534-33.075,30.508-60.848l0.284-0.485c5.244-8.037,11.867-9.718,16.5-9.718h1.163
	c5.904,0,11.098,2.718,15.447,8.079L107.896,15c0.568,0.819,1.79,3.036,12.31,24.227c16.868,33.586,29.521,58.825,37.959,75.676
	c4.223,8.432,7.385,14.762,9.5,19c1.647,3.32,2.559,5.152,3.061,6.283l0.017-0.01C177.032,151.769,177.843,156.226,177.843,158.81"
	/>
</svg>
