<svg width="120" height="28" viewBox="0 0 120 28" fill="none" xmlns="http://www.w3.org/2000/svg">
<path fill-rule="evenodd" clip-rule="evenodd" d="M9.33333 3.42188C7.86057 3.42188 6.66667 4.61578 6.66667 6.08854C6.66667 7.5613 7.86057 8.75521 9.33333 8.75521C10.8061 8.75521 12 7.5613 12 6.08854C12 4.61578 10.8061 3.42188 9.33333 3.42188ZM4 6.08854C4 3.14302 6.38781 0.755208 9.33333 0.755208C12.2788 0.755208 14.6667 3.14302 14.6667 6.08854C14.6667 9.03401 12.2788 11.4219 9.33333 11.4219C6.38781 11.4219 4 9.03401 4 6.08854ZM16 2.08854C16 1.35217 16.5969 0.755208 17.3333 0.755208C20.2788 0.755208 22.6667 3.14302 22.6667 6.08854C22.6667 9.03401 20.2788 11.4219 17.3333 11.4219C16.5969 11.4219 16 10.8249 16 10.0885C16 9.35214 16.5969 8.75521 17.3333 8.75521C18.8061 8.75521 20 7.5613 20 6.08854C20 4.61578 18.8061 3.42188 17.3333 3.42188C16.5969 3.42188 16 2.82492 16 2.08854ZM6.66667 15.4219C4.45753 15.4219 2.66667 17.2127 2.66667 19.4219V20.7552C2.66667 21.4916 2.06971 22.0885 1.33333 22.0885C0.59696 22.0885 0 21.4916 0 20.7552V19.4219C0 15.74 2.98477 12.7552 6.66667 12.7552H12C15.6819 12.7552 18.6667 15.74 18.6667 19.4219V20.7552C18.6667 21.4916 18.0697 22.0885 17.3333 22.0885C16.5969 22.0885 16 21.4916 16 20.7552V19.4219C16 17.2127 14.2092 15.4219 12 15.4219H6.66667ZM18 14.0885C18 13.3521 18.5969 12.7552 19.3333 12.7552H20C23.6819 12.7552 26.6667 15.74 26.6667 19.4219V20.7552C26.6667 21.4916 26.0697 22.0885 25.3333 22.0885C24.5969 22.0885 24 21.4916 24 20.7552V19.4219C24 17.2127 22.2092 15.4219 20 15.4219H19.3333C18.5969 15.4219 18 14.8249 18 14.0885Z" fill="#24292F"/>
<path d="M44.2786 0V6.875C44.2786 7.83333 44.0964 8.66667 43.7318 9.375C43.3672 10.0781 42.8203 10.6224 42.0911 11.0078C41.362 11.388 40.4479 11.5781 39.349 11.5781C37.776 11.5781 36.5755 11.1745 35.7474 10.3672C34.9193 9.5599 34.5052 8.41927 34.5052 6.94531V0H37.6068V6.70312C37.6068 7.51042 37.7578 8.09635 38.0599 8.46094C38.362 8.82552 38.8073 9.00781 39.3958 9.00781C39.8177 9.00781 40.1615 8.92969 40.4271 8.77344C40.6927 8.61198 40.8854 8.35938 41.0052 8.01562C41.1302 7.67188 41.1927 7.22917 41.1927 6.6875V0H44.2786Z" fill="#24292F"/>
<path d="M53.0755 8.70312C53.0755 9.26562 52.9505 9.76302 52.7005 10.1953C52.4505 10.6276 52.0495 10.9661 51.4974 11.2109C50.9505 11.4557 50.2292 11.5781 49.3333 11.5781C48.7031 11.5781 48.138 11.5443 47.638 11.4766C47.1432 11.4089 46.6406 11.2786 46.1302 11.0859V8.64062C46.6875 8.89583 47.2552 9.08073 47.8333 9.19531C48.4115 9.30469 48.8672 9.35938 49.2005 9.35938C49.5443 9.35938 49.7943 9.32292 49.9505 9.25C50.112 9.17188 50.1927 9.05729 50.1927 8.90625C50.1927 8.77604 50.138 8.66667 50.0286 8.57812C49.9245 8.48438 49.7344 8.3776 49.4583 8.25781C49.1875 8.13802 48.8047 7.97656 48.3099 7.77344C47.8203 7.57031 47.4115 7.34896 47.0833 7.10938C46.7604 6.86979 46.5182 6.58333 46.3568 6.25C46.1953 5.91667 46.1146 5.50781 46.1146 5.02344C46.1146 4.15885 46.4479 3.50781 47.1146 3.07031C47.7812 2.63281 48.6641 2.41406 49.763 2.41406C50.3464 2.41406 50.8958 2.47917 51.4115 2.60938C51.9271 2.73438 52.4609 2.91927 53.013 3.16406L52.1771 5.13281C51.7396 4.9349 51.2969 4.77604 50.849 4.65625C50.401 4.53646 50.0443 4.47656 49.7786 4.47656C49.5391 4.47656 49.3542 4.50781 49.224 4.57031C49.0938 4.63281 49.0286 4.72396 49.0286 4.84375C49.0286 4.95312 49.0729 5.04948 49.1615 5.13281C49.2552 5.21615 49.4297 5.3125 49.6849 5.42188C49.9401 5.53125 50.3125 5.6849 50.8021 5.88281C51.3177 6.09115 51.7422 6.3151 52.0755 6.55469C52.4141 6.78906 52.6641 7.07552 52.8255 7.41406C52.9922 7.7526 53.0755 8.18229 53.0755 8.70312Z" fill="#24292F"/>
<path d="M58.763 2.41406C59.6224 2.41406 60.3646 2.5651 60.9896 2.86719C61.6146 3.16406 62.0964 3.61198 62.4349 4.21094C62.7734 4.8099 62.9427 5.5599 62.9427 6.46094V7.82031H57.4818C57.5078 8.28385 57.6797 8.66406 57.9974 8.96094C58.3203 9.25781 58.7943 9.40625 59.4193 9.40625C59.9714 9.40625 60.4766 9.35156 60.9349 9.24219C61.3984 9.13281 61.875 8.96354 62.3646 8.73438V10.9297C61.9375 11.1536 61.4714 11.3177 60.9661 11.4219C60.4609 11.526 59.8229 11.5781 59.0521 11.5781C58.1615 11.5781 57.3646 11.4193 56.6615 11.1016C55.9583 10.7839 55.4036 10.2917 54.9974 9.625C54.5964 8.95833 54.3958 8.10156 54.3958 7.05469C54.3958 5.99219 54.5781 5.11979 54.9427 4.4375C55.3073 3.75 55.8177 3.24219 56.474 2.91406C57.1302 2.58073 57.8932 2.41406 58.763 2.41406ZM58.8724 4.49219C58.513 4.49219 58.2109 4.60677 57.9661 4.83594C57.7266 5.0599 57.5859 5.41406 57.5443 5.89844H60.1693C60.1641 5.63802 60.112 5.40104 60.013 5.1875C59.9141 4.97396 59.7682 4.80469 59.5755 4.67969C59.388 4.55469 59.1536 4.49219 58.8724 4.49219Z" fill="#24292F"/>
<path d="M70.013 2.41406C70.1797 2.41406 70.3542 2.42708 70.5365 2.45312C70.7188 2.47396 70.8542 2.49219 70.9427 2.50781L70.6693 5.39062C70.5703 5.36458 70.4427 5.34375 70.2865 5.32812C70.1302 5.30729 69.9115 5.29688 69.6302 5.29688C69.4375 5.29688 69.2318 5.3151 69.013 5.35156C68.7943 5.38802 68.5859 5.46615 68.388 5.58594C68.1953 5.70052 68.0365 5.8776 67.9115 6.11719C67.7865 6.35156 67.724 6.66927 67.724 7.07031V11.4219H64.6693V2.57031H66.9427L67.4193 3.98438H67.5677C67.7292 3.69271 67.9349 3.42969 68.1849 3.19531C68.4401 2.95573 68.724 2.76562 69.0365 2.625C69.3542 2.48438 69.6797 2.41406 70.013 2.41406Z" fill="#24292F"/>
<path d="M42.6644 16.793C43.4893 16.793 44.1113 17.0094 44.5306 17.4424C44.9499 17.8708 45.1595 18.5612 45.1595 19.5137V24.4219H44.0384V19.5684C44.0384 18.9622 43.9062 18.5088 43.6419 18.208C43.3822 17.9027 42.9948 17.75 42.4798 17.75C41.7552 17.75 41.2288 17.9596 40.9007 18.3789C40.5726 18.7982 40.4085 19.4157 40.4085 20.2314V24.4219H39.2806V19.5684C39.2806 19.1628 39.2214 18.8255 39.1029 18.5566C38.9889 18.2878 38.8158 18.0872 38.5833 17.9551C38.3555 17.8184 38.0661 17.75 37.7152 17.75C37.2184 17.75 36.8197 17.8525 36.5189 18.0576C36.2181 18.2627 35.9993 18.568 35.8626 18.9736C35.7305 19.3747 35.6644 19.8691 35.6644 20.457V24.4219H34.5296V16.9297H35.4456L35.6165 17.9893H35.6781C35.8284 17.7295 36.0176 17.5107 36.2454 17.333C36.4733 17.1553 36.7285 17.0208 37.0111 16.9297C37.2936 16.8385 37.5944 16.793 37.9134 16.793C38.4831 16.793 38.9593 16.9001 39.3421 17.1143C39.7295 17.3239 40.0098 17.6452 40.1829 18.0781H40.2445C40.4906 17.6452 40.8278 17.3239 41.2562 17.1143C41.6846 16.9001 42.154 16.793 42.6644 16.793Z" fill="#24292F"/>
<path d="M50.2933 16.8066C51.1865 16.8066 51.8496 17.0072 52.2826 17.4082C52.7155 17.8092 52.932 18.4495 52.932 19.3291V24.4219H52.1048L51.8861 23.3145H51.8314C51.6217 23.5879 51.403 23.818 51.1751 24.0049C50.9473 24.1872 50.6829 24.3262 50.3822 24.4219C50.0859 24.513 49.7214 24.5586 49.2884 24.5586C48.8327 24.5586 48.4271 24.4788 48.0716 24.3193C47.7207 24.1598 47.4427 23.9183 47.2376 23.5947C47.0371 23.2712 46.9368 22.861 46.9368 22.3643C46.9368 21.6169 47.2331 21.0426 47.8255 20.6416C48.418 20.2406 49.3203 20.0218 50.5326 19.9854L51.8245 19.9307V19.4727C51.8245 18.8255 51.6855 18.3721 51.4076 18.1123C51.1296 17.8525 50.7376 17.7227 50.2318 17.7227C49.8398 17.7227 49.4661 17.7796 49.1107 17.8936C48.7552 18.0075 48.418 18.1419 48.099 18.2969L47.7503 17.4355C48.0876 17.2624 48.4749 17.1143 48.9124 16.9912C49.3499 16.8682 49.8102 16.8066 50.2933 16.8066ZM51.8109 20.7305L50.6693 20.7783C49.735 20.8148 49.0765 20.9674 48.6937 21.2363C48.3109 21.5052 48.1195 21.8857 48.1195 22.3779C48.1195 22.8063 48.2493 23.123 48.5091 23.3281C48.7689 23.5332 49.113 23.6357 49.5413 23.6357C50.2067 23.6357 50.7513 23.4512 51.1751 23.082C51.599 22.7129 51.8109 22.1592 51.8109 21.4209V20.7305Z" fill="#24292F"/>
<path d="M58.8177 16.793C59.7064 16.793 60.3786 17.0117 60.8343 17.4492C61.29 17.8822 61.5179 18.5794 61.5179 19.541V24.4219H60.3968V19.6162C60.3968 18.9919 60.2533 18.5247 59.9661 18.2148C59.6836 17.9049 59.2484 17.75 58.6605 17.75C57.8311 17.75 57.2477 17.9847 56.9105 18.4541C56.5732 18.9235 56.4046 19.6048 56.4046 20.498V24.4219H55.2699V16.9297H56.1859L56.3568 18.0098H56.4183C56.5778 17.7454 56.7806 17.5244 57.0267 17.3467C57.2728 17.1644 57.5485 17.0277 57.8538 16.9365C58.1592 16.8408 58.4805 16.793 58.8177 16.793Z" fill="#24292F"/>
<path d="M66.6585 16.8066C67.5518 16.8066 68.2148 17.0072 68.6478 17.4082C69.0807 17.8092 69.2972 18.4495 69.2972 19.3291V24.4219H68.4701L68.2513 23.3145H68.1966C67.987 23.5879 67.7682 23.818 67.5404 24.0049C67.3125 24.1872 67.0482 24.3262 66.7474 24.4219C66.4512 24.513 66.0866 24.5586 65.6536 24.5586C65.1979 24.5586 64.7923 24.4788 64.4369 24.3193C64.0859 24.1598 63.8079 23.9183 63.6029 23.5947C63.4023 23.2712 63.3021 22.861 63.3021 22.3643C63.3021 21.6169 63.5983 21.0426 64.1908 20.6416C64.7832 20.2406 65.6855 20.0218 66.8978 19.9854L68.1898 19.9307V19.4727C68.1898 18.8255 68.0508 18.3721 67.7728 18.1123C67.4948 17.8525 67.1029 17.7227 66.597 17.7227C66.2051 17.7227 65.8314 17.7796 65.4759 17.8936C65.1204 18.0075 64.7832 18.1419 64.4642 18.2969L64.1156 17.4355C64.4528 17.2624 64.8402 17.1143 65.2777 16.9912C65.7152 16.8682 66.1755 16.8066 66.6585 16.8066ZM68.1761 20.7305L67.0345 20.7783C66.1003 20.8148 65.4417 20.9674 65.0589 21.2363C64.6761 21.5052 64.4847 21.8857 64.4847 22.3779C64.4847 22.8063 64.6146 23.123 64.8744 23.3281C65.1341 23.5332 65.4782 23.6357 65.9066 23.6357C66.5719 23.6357 67.1165 23.4512 67.5404 23.082C67.9642 22.7129 68.1761 22.1592 68.1761 21.4209V20.7305Z" fill="#24292F"/>
<path d="M73.7269 27.7852C72.7425 27.7852 71.9837 27.6006 71.4505 27.2314C70.9173 26.8669 70.6507 26.3542 70.6507 25.6934C70.6507 25.224 70.7988 24.8229 71.0951 24.4902C71.3958 24.1576 71.8105 23.9365 72.3392 23.8271C72.1432 23.736 71.9746 23.5993 71.8333 23.417C71.6966 23.2347 71.6283 23.0251 71.6283 22.7881C71.6283 22.5146 71.7035 22.2754 71.8538 22.0703C72.0088 21.8607 72.2435 21.6602 72.5579 21.4688C72.166 21.3092 71.847 21.0404 71.6009 20.6621C71.3594 20.2793 71.2386 19.835 71.2386 19.3291C71.2386 18.7913 71.3503 18.3333 71.5736 17.9551C71.7969 17.5723 72.1204 17.2806 72.5443 17.0801C72.9681 16.8796 73.4808 16.7793 74.0824 16.7793C74.2145 16.7793 74.3467 16.7861 74.4788 16.7998C74.6156 16.8089 74.7454 16.8249 74.8685 16.8477C74.9915 16.8659 75.0986 16.8887 75.1898 16.916H77.7601V17.6475L76.3792 17.8184C76.516 17.9961 76.6299 18.2103 76.721 18.4609C76.8122 18.7116 76.8577 18.9896 76.8577 19.2949C76.8577 20.0423 76.6048 20.637 76.099 21.0791C75.5931 21.5166 74.8981 21.7354 74.014 21.7354C73.8044 21.7354 73.5902 21.7171 73.3714 21.6807C73.1481 21.8037 72.9772 21.9404 72.8587 22.0908C72.7448 22.2412 72.6878 22.4144 72.6878 22.6104C72.6878 22.7562 72.7311 22.8724 72.8177 22.959C72.9089 23.0456 73.0387 23.1094 73.2074 23.1504C73.376 23.1868 73.5788 23.2051 73.8158 23.2051H75.1351C75.9509 23.2051 76.5752 23.376 77.0081 23.7178C77.4456 24.0596 77.6644 24.5586 77.6644 25.2148C77.6644 26.0443 77.3271 26.68 76.6527 27.1221C75.9782 27.5641 75.0029 27.7852 73.7269 27.7852ZM73.7611 26.8965C74.3809 26.8965 74.8936 26.8327 75.2992 26.7051C75.7093 26.582 76.0146 26.402 76.2152 26.165C76.4202 25.9326 76.5228 25.6546 76.5228 25.3311C76.5228 25.0303 76.4544 24.8024 76.3177 24.6475C76.181 24.4971 75.9805 24.3968 75.7161 24.3467C75.4518 24.292 75.1283 24.2646 74.7454 24.2646H73.4466C73.1094 24.2646 72.8154 24.3171 72.5648 24.4219C72.3141 24.5267 72.1204 24.6816 71.9837 24.8867C71.8516 25.0918 71.7855 25.347 71.7855 25.6523C71.7855 26.0579 71.9564 26.3656 72.2982 26.5752C72.64 26.7894 73.1276 26.8965 73.7611 26.8965ZM74.055 20.9082C74.5973 20.9082 75.0052 20.7715 75.2786 20.498C75.5521 20.2246 75.6888 19.8258 75.6888 19.3018C75.6888 18.7412 75.5498 18.3219 75.2718 18.0439C74.9938 17.7614 74.5837 17.6201 74.0413 17.6201C73.5218 17.6201 73.1208 17.766 72.8382 18.0576C72.5602 18.3447 72.4212 18.7663 72.4212 19.3223C72.4212 19.8327 72.5625 20.2246 72.8451 20.498C73.1276 20.7715 73.5309 20.9082 74.055 20.9082Z" fill="#24292F"/>
<path d="M82.1214 16.793C82.7594 16.793 83.3063 16.9342 83.762 17.2168C84.2178 17.4993 84.5664 17.8958 84.8079 18.4062C85.0495 18.9121 85.1702 19.5046 85.1702 20.1836V20.8877H79.9954C80.0091 21.7673 80.2279 22.4372 80.6517 22.8975C81.0755 23.3577 81.6725 23.5879 82.4427 23.5879C82.9167 23.5879 83.3359 23.5446 83.7005 23.458C84.0651 23.3714 84.4434 23.2438 84.8353 23.0752V24.0732C84.457 24.2419 84.0811 24.3649 83.7074 24.4424C83.3382 24.5199 82.9007 24.5586 82.3949 24.5586C81.6748 24.5586 81.0459 24.4128 80.5081 24.1211C79.9749 23.8249 79.5602 23.3919 79.264 22.8223C78.9678 22.2526 78.8197 21.5553 78.8197 20.7305C78.8197 19.9238 78.9541 19.2266 79.223 18.6387C79.4964 18.0462 79.8792 17.5905 80.3714 17.2715C80.8682 16.9525 81.4515 16.793 82.1214 16.793ZM82.1077 17.7227C81.5016 17.7227 81.0186 17.9209 80.6585 18.3174C80.2985 18.7139 80.0843 19.2676 80.016 19.9785H83.9808C83.9762 19.5319 83.9056 19.14 83.7689 18.8027C83.6367 18.4609 83.4339 18.1966 83.1605 18.0098C82.887 17.8184 82.5361 17.7227 82.1077 17.7227Z" fill="#24292F"/>
<path d="M95.2327 16.793C96.0576 16.793 96.6797 17.0094 97.099 17.4424C97.5182 17.8708 97.7279 18.5612 97.7279 19.5137V24.4219H96.6068V19.5684C96.6068 18.9622 96.4746 18.5088 96.2103 18.208C95.9505 17.9027 95.5632 17.75 95.0482 17.75C94.3236 17.75 93.7972 17.9596 93.4691 18.3789C93.141 18.7982 92.9769 19.4157 92.9769 20.2314V24.4219H91.849V19.5684C91.849 19.1628 91.7897 18.8255 91.6712 18.5566C91.5573 18.2878 91.3841 18.0872 91.1517 17.9551C90.9238 17.8184 90.6344 17.75 90.2835 17.75C89.7868 17.75 89.388 17.8525 89.0872 18.0576C88.7865 18.2627 88.5677 18.568 88.431 18.9736C88.2988 19.3747 88.2327 19.8691 88.2327 20.457V24.4219H87.098V16.9297H88.014L88.1849 17.9893H88.2464C88.3968 17.7295 88.5859 17.5107 88.8138 17.333C89.0417 17.1553 89.2969 17.0208 89.5794 16.9297C89.862 16.8385 90.1628 16.793 90.4818 16.793C91.0514 16.793 91.5277 16.9001 91.9105 17.1143C92.2979 17.3239 92.5781 17.6452 92.7513 18.0781H92.8128C93.0589 17.6452 93.3962 17.3239 93.8245 17.1143C94.2529 16.9001 94.7223 16.793 95.2327 16.793Z" fill="#24292F"/>
<path d="M102.944 16.793C103.582 16.793 104.129 16.9342 104.584 17.2168C105.04 17.4993 105.389 17.8958 105.63 18.4062C105.872 18.9121 105.993 19.5046 105.993 20.1836V20.8877H100.818C100.831 21.7673 101.05 22.4372 101.474 22.8975C101.898 23.3577 102.495 23.5879 103.265 23.5879C103.739 23.5879 104.158 23.5446 104.523 23.458C104.887 23.3714 105.266 23.2438 105.658 23.0752V24.0732C105.279 24.2419 104.903 24.3649 104.53 24.4424C104.16 24.5199 103.723 24.5586 103.217 24.5586C102.497 24.5586 101.868 24.4128 101.33 24.1211C100.797 23.8249 100.382 23.3919 100.086 22.8223C99.79 22.2526 99.6419 21.5553 99.6419 20.7305C99.6419 19.9238 99.7764 19.2266 100.045 18.6387C100.319 18.0462 100.701 17.5905 101.194 17.2715C101.69 16.9525 102.274 16.793 102.944 16.793ZM102.93 17.7227C102.324 17.7227 101.841 17.9209 101.481 18.3174C101.121 18.7139 100.907 19.2676 100.838 19.9785H104.803C104.799 19.5319 104.728 19.14 104.591 18.8027C104.459 18.4609 104.256 18.1966 103.983 18.0098C103.709 17.8184 103.358 17.7227 102.93 17.7227Z" fill="#24292F"/>
<path d="M111.468 16.793C112.357 16.793 113.029 17.0117 113.485 17.4492C113.94 17.8822 114.168 18.5794 114.168 19.541V24.4219H113.047V19.6162C113.047 18.9919 112.904 18.5247 112.617 18.2148C112.334 17.9049 111.899 17.75 111.311 17.75C110.481 17.75 109.898 17.9847 109.561 18.4541C109.224 18.9235 109.055 19.6048 109.055 20.498V24.4219H107.92V16.9297H108.836L109.007 18.0098H109.069C109.228 17.7454 109.431 17.5244 109.677 17.3467C109.923 17.1644 110.199 17.0277 110.504 16.9365C110.81 16.8408 111.131 16.793 111.468 16.793Z" fill="#24292F"/>
<path d="M118.926 23.6289C119.113 23.6289 119.304 23.613 119.5 23.5811C119.696 23.5492 119.856 23.5104 119.979 23.4648V24.3467C119.847 24.4059 119.662 24.4561 119.425 24.4971C119.193 24.5381 118.965 24.5586 118.742 24.5586C118.345 24.5586 117.985 24.4902 117.661 24.3535C117.338 24.2122 117.078 23.9753 116.882 23.6426C116.691 23.3099 116.595 22.8496 116.595 22.2617V17.8184H115.529V17.2646L116.602 16.8203L117.053 15.1934H117.737V16.9297H119.931V17.8184H117.737V22.2275C117.737 22.6969 117.844 23.0479 118.058 23.2803C118.277 23.5127 118.566 23.6289 118.926 23.6289Z" fill="#24292F"/>
</svg>
